<svg width="21" height="20" viewBox="0 0 21 20" fill="none" xmlns="http://www.w3.org/2000/svg">
<path d="M20.0144 2.97872H0.980112C0.682612 2.97872 0.441406 2.69293 0.441406 2.34043V0.638298C0.441406 0.285798 0.682612 0 0.980112 0H20.0144C20.3119 0 20.5531 0.285798 20.5531 0.638298V2.34043C20.5531 2.69293 20.3119 2.97872 20.0144 2.97872ZM20.0144 11.4894H0.980112C0.682612 11.4894 0.441406 11.2036 0.441406 10.8511V9.14894C0.441406 8.79644 0.682612 8.51064 0.980112 8.51064H20.0144C20.3119 8.51064 20.5531 8.79644 20.5531 9.14894V10.8511C20.5531 11.2036 20.3119 11.4894 20.0144 11.4894ZM20.0144 20H0.980112C0.682612 20 0.441406 19.7142 0.441406 19.3617V17.6596C0.441406 17.3071 0.682612 17.0213 0.980112 17.0213H20.0144C20.3119 17.0213 20.5531 17.3071 20.5531 17.6596V19.3617C20.5531 19.7142 20.3119 20 20.0144 20Z" fill="#212121"/>
</svg>
