<svg width="29" height="22" viewBox="0 0 29 22" fill="none" xmlns="http://www.w3.org/2000/svg">
<path d="M20.88 11.375C22.8672 11.375 24.4656 9.675 24.4656 7.58036C24.4656 5.48571 22.8672 3.78571 20.88 3.78571C18.8928 3.78571 17.28 5.48571 17.28 7.58036C17.28 9.675 18.8928 11.375 20.88 11.375ZM10.08 9.85714C12.4704 9.85714 14.3856 7.82321 14.3856 5.30357C14.3856 2.78393 12.4704 0.75 10.08 0.75C7.6896 0.75 5.76 2.78393 5.76 5.30357C5.76 7.82321 7.6896 9.85714 10.08 9.85714ZM20.88 14.4107C18.2448 14.4107 12.96 15.8071 12.96 18.5848V22H28.8V18.5848C28.8 15.8071 23.5152 14.4107 20.88 14.4107ZM10.08 12.8929C6.7248 12.8929 0 14.6688 0 18.2054V22H10.08V18.5848C10.08 17.2946 10.5552 15.033 13.4928 13.3179C12.24 13.0446 11.0304 12.8929 10.08 12.8929Z" fill="#585858"/>
</svg>
