<svg width="35" height="28" viewBox="0 0 35 28" fill="none" xmlns="http://www.w3.org/2000/svg">
<path d="M34.5156 15.2386L22.8484 27.4866C21.8066 28.5801 20.001 27.8146 20.001 26.2472V19.2484H10.5561C9.63242 19.2484 8.88933 18.4683 8.88933 17.4986V10.4998C8.88933 9.53018 9.63242 8.7501 10.5561 8.7501H20.001V1.75126C20.001 0.191102 21.7997 -0.581686 22.8484 0.511882L34.5156 12.7598C35.1615 13.4452 35.1615 14.5533 34.5156 15.2386ZM13.334 27.122V24.2059C13.334 23.7247 12.959 23.331 12.5006 23.331H6.667C5.43777 23.331 4.44467 22.2885 4.44467 20.9981V7.00039C4.44467 5.70998 5.43777 4.66744 6.667 4.66744H12.5006C12.959 4.66744 13.334 4.27376 13.334 3.79259V0.876405C13.334 0.395235 12.959 0.00155058 12.5006 0.00155058H6.667C2.98626 0.00155058 0 3.13645 0 7.00039V20.9981C0 24.862 2.98626 27.9969 6.667 27.9969H12.5006C12.959 27.9969 13.334 27.6032 13.334 27.122Z" fill="#585858"/>
</svg>
