<svg width="33" height="32" viewBox="0 0 33 32" fill="none" xmlns="http://www.w3.org/2000/svg">
<path d="M29.1228 17.56C29.1864 17.06 29.2289 16.54 29.2289 16C29.2289 15.46 29.1864 14.94 29.1016 14.44L32.6869 11.8C33.0051 11.56 33.09 11.12 32.899 10.78L29.5047 5.24C29.2925 4.88 28.847 4.76 28.4651 4.88L24.2434 6.48C23.3524 5.84 22.4189 5.32 21.3794 4.92L20.743 0.68C20.6793 0.28 20.3187 0 19.8944 0H13.1056C12.6813 0 12.3419 0.28 12.2783 0.68L11.6418 4.92C10.6023 5.32 9.64763 5.86 8.77782 6.48L4.55608 4.88C4.17421 4.74 3.7287 4.88 3.51655 5.24L0.122187 10.78C-0.0899606 11.14 -0.00510111 11.56 0.334335 11.8L3.91963 14.44C3.83477 14.94 3.77113 15.48 3.77113 16C3.77113 16.52 3.81356 17.06 3.89842 17.56L0.31312 20.2C-0.0051016 20.44 -0.0899605 20.88 0.100973 21.22L3.49534 26.76C3.70749 27.12 4.153 27.24 4.53486 27.12L8.7566 25.52C9.64762 26.16 10.5811 26.68 11.6206 27.08L12.257 31.32C12.3419 31.72 12.6813 32 13.1056 32H19.8944C20.3187 32 20.6793 31.72 20.7217 31.32L21.3582 27.08C22.3977 26.68 23.3524 26.14 24.2222 25.52L28.4439 27.12C28.8258 27.26 29.2713 27.12 29.4834 26.76L32.8778 21.22C33.09 20.86 33.0051 20.44 32.6657 20.2L29.1228 17.56ZM16.5 22C12.9996 22 10.1356 19.3 10.1356 16C10.1356 12.7 12.9996 10 16.5 10C20.0004 10 22.8644 12.7 22.8644 16C22.8644 19.3 20.0004 22 16.5 22Z" fill="#585858"/>
</svg>
