<svg width="70" height="70" viewBox="0 0 70 70" fill="none" xmlns="http://www.w3.org/2000/svg">
<path fill-rule="evenodd" clip-rule="evenodd" d="M70 62.0195C65.7325 61.5641 61.6279 60.8337 57.6878 59.8239L62.9306 44.1349L70 45.9136V62.0195ZM70 36.9624V40.7845L52.7891 36.4509L53.9709 32.8935L70 36.9624ZM21.7584 13.2479C19.7103 15.0399 18.6862 17.203 18.6862 19.7402C18.6862 22.2878 19.7103 24.4583 21.7584 26.2503C23.7931 28.0423 26.2575 28.9368 29.1518 28.9368C32.0309 28.9368 34.487 28.0423 36.5216 26.2503C38.5563 24.4583 39.5737 22.2878 39.5737 19.7402C39.5737 17.203 38.5563 15.0399 36.5216 13.2479C34.487 11.444 32.0309 10.5421 29.1518 10.5421C26.2575 10.5421 23.7931 11.444 21.7584 13.2479ZM45.525 0H70V31.7579L55.5171 28.1044L60.5669 12.8694L54.8305 11.3184L45.4394 39.7052L57.1287 42.6771L53.3901 54.0516H53.3683L52.0152 58.1576C22.5323 49.3646 7.36113 29.9777 6.50159 0H38.4993L34.3728 5.94232L39.5082 8.74419L45.525 0Z" fill="#3B8A82"/>
<path fill-rule="evenodd" clip-rule="evenodd" d="M70 57.2313C66.1403 56.811 62.428 56.137 58.8644 55.2051L63.6062 40.7274L70 42.3688V57.2313ZM70 34.1087V37.6357L54.4338 33.6366L55.5027 30.3539L70 34.1087ZM26.3685 12.2251C24.5161 13.8787 23.5899 15.8748 23.5899 18.2162C23.5899 20.567 24.5161 22.57 26.3685 24.2236C28.2088 25.8773 30.4377 26.7027 33.0554 26.7027C35.6593 26.7027 37.8807 25.8773 39.7209 24.2236C41.5612 22.57 42.4813 20.567 42.4813 18.2162C42.4813 15.8748 41.5612 13.8787 39.7209 12.2251C37.8807 10.5605 35.6593 9.7282 33.0554 9.7282C30.4377 9.7282 28.2088 10.5605 26.3685 12.2251ZM47.8639 0H70V29.306L56.9011 25.9346L61.4684 11.8758L56.2801 10.4445L47.7865 36.6397L58.3588 39.3821L54.9774 49.8785H54.9576L53.7339 53.6674C27.0685 45.5533 13.3471 27.6633 12.5697 0H41.5096L37.7774 5.48354L42.4221 8.06908L47.8639 0Z" fill="#6BB0A9"/>
<path fill-rule="evenodd" clip-rule="evenodd" d="M0 19.1531C2.02431 22.3292 4.10871 25.3468 6.2548 28.2056L0 32.6852V19.1531ZM0 47.147L13.7859 37.2403C16.7543 40.4417 19.8256 43.3584 22.9965 45.9904L9.7578 60.7947L18.9067 67.9685L32.5107 52.7846C38.367 56.3656 44.5285 59.048 50.992 60.8333L50.4258 62.6542H50.4053L48.1184 70H0V47.147ZM54.0079 70L56.4782 62.1233C57.7054 62.3517 58.9406 62.5593 60.1821 62.7491V70H54.0079ZM65.8912 70V63.3185C67.2545 63.4208 68.624 63.4771 69.9999 63.4905V70H65.8912Z" fill="#BE3671"/>
<path fill-rule="evenodd" clip-rule="evenodd" d="M5.29097e-05 50.3632L12.6781 41.6124C15.2473 44.3632 16.9769 46.4192 19.7214 48.6808L7.58519 62.1234L16.4706 69.9671L29.7988 56.0912C34.8675 59.1682 38.5403 60.5893 44.1347 62.1234L40.8514 69.9184L5.29097e-05 70V50.3632Z" fill="#FF3E91"/>
<path d="M4.76785 29.7557C2.91037 27.2992 1.75208 25.5619 0 22.8328V33.0619L4.76785 29.7557Z" fill="#FF3E91"/>
<path d="M65.7936 65.5537V70H70V65.5537C68.8091 65.5423 66.9735 65.6417 65.7936 65.5537Z" fill="#FF3E91"/>
<path d="M55.5882 64.4066L53.6197 69.9184H59.7058V64.4066H55.5882Z" fill="#FF3E91"/>
</svg>
