<svg width="31" height="30" viewBox="0 0 31 30" fill="none" xmlns="http://www.w3.org/2000/svg">
<path d="M21.4792 18.75H20.1296L19.6513 18.3112C21.3254 16.4587 22.3333 14.0538 22.3333 11.4375C22.3333 5.60375 17.3621 0.875 11.2292 0.875C5.09625 0.875 0.125 5.60375 0.125 11.4375C0.125 17.2712 5.09625 22 11.2292 22C13.9796 22 16.5079 21.0413 18.4554 19.4487L18.9167 19.9037V21.1875L27.4583 29.2962L30.0038 26.875L21.4792 18.75ZM11.2292 18.75C6.97542 18.75 3.54167 15.4838 3.54167 11.4375C3.54167 7.39125 6.97542 4.125 11.2292 4.125C15.4829 4.125 18.9167 7.39125 18.9167 11.4375C18.9167 15.4838 15.4829 18.75 11.2292 18.75Z" fill="#585858"/>
</svg>
